<svg shape-rendering="geometricPrecision">

    <symbol id="icon-add-block" viewBox="0 0 24 24" aria-hidden="true">
        <path d="M11 12.5V17.5H12.5V12.5H17.5V11H12.5V6H11V11H6V12.5H11Z" />
    </symbol>

    <symbol id="icon-material-drag" viewBox="0 -960 960 960" aria-hidden="true">
        <path
            d="M360-160q-33 0-56.5-23.5T280-240q0-33 23.5-56.5T360-320q33 0 56.5 23.5T440-240q0 33-23.5 56.5T360-160Zm240 0q-33 0-56.5-23.5T520-240q0-33 23.5-56.5T600-320q33 0 56.5 23.5T680-240q0 33-23.5 56.5T600-160ZM360-400q-33 0-56.5-23.5T280-480q0-33 23.5-56.5T360-560q33 0 56.5 23.5T440-480q0 33-23.5 56.5T360-400Zm240 0q-33 0-56.5-23.5T520-480q0-33 23.5-56.5T600-560q33 0 56.5 23.5T680-480q0 33-23.5 56.5T600-400ZM360-640q-33 0-56.5-23.5T280-720q0-33 23.5-56.5T360-800q33 0 56.5 23.5T440-720q0 33-23.5 56.5T360-640Zm240 0q-33 0-56.5-23.5T520-720q0-33 23.5-56.5T600-800q33 0 56.5 23.5T680-720q0 33-23.5 56.5T600-640Z" />
    </symbol>

    <symbol id="icon-material-paragraph" viewBox="0 -960 960 960" aria-hidden="true">
        <path
            d="M360-160v-240q-83 0-141.5-58.5T160-600q0-83 58.5-141.5T360-800h360v80h-80v560h-80v-560H440v560h-80Z" />
    </symbol>

    <symbol id="icon-wordpress-paragraph" viewBox="0 0 24 24">
        <path
            d="m9.99609 14v-.2251l.00391.0001v6.225h1.5v-14.5h2.5v14.5h1.5v-14.5h3v-1.5h-8.50391c-2.76142 0-5 2.23858-5 5 0 2.7614 2.23858 5 5 5z" />
    </symbol>

    <symbol id="icon-wordpress-list" viewBox="0 0 24 24">
        <path
            d="M4 4v1.5h16V4H4zm8 8.5h8V11h-8v1.5zM4 20h16v-1.5H4V20zm4-8c0-1.1-.9-2-2-2s-2 .9-2 2 .9 2 2 2 2-.9 2-2z" />
    </symbol>

    <symbol id="icon-wordpress-numbered-list" viewBox="0 0 24 24">
        <path
            d="M11.1 15.8H20v-1.5h-8.9v1.5zm0-8.6v1.5H20V7.2h-8.9zM5 6.7V10h1V5.3L3.8 6l.4 1 .8-.3zm-.4 5.7c-.3.1-.5.2-.7.3l.1 1.1c.2-.2.5-.4.8-.5.3-.1.6 0 .7.1.2.3 0 .8-.2 1.1-.5.8-.9 1.6-1.4 2.5h2.7v-1h-1c.3-.6.8-1.4.9-2.1.1-.3 0-.8-.2-1.1-.5-.6-1.3-.5-1.7-.4z" />
    </symbol>

    <symbol id="icon-wordpress-bulleted-list" viewBox="0 0 24 24">
        <path
            d="M11.1 15.8H20v-1.5h-8.9v1.5zm0-8.6v1.5H20V7.2h-8.9zM6 13c-1.1 0-2 .9-2 2s.9 2 2 2 2-.9 2-2-.9-2-2-2zm0-7c-1.1 0-2 .9-2 2s.9 2 2 2 2-.9 2-2-.9-2-2-2z" />
    </symbol>

    <symbol id="icon-wordpress-separator" viewBox="0 0 24 24">
        <path d="M4.5 12.5v4H3V7h1.5v3.987h15V7H21v9.5h-1.5v-4h-15Z" />
    </symbol>

    <symbol id="icon-wordpress-quote" viewBox="0 0 24 24">
        <path
            d="M13 6v6h5.2v4c0 .8-.2 1.4-.5 1.7-.6.6-1.6.6-2.5.5h-.3v1.5h.5c1 0 2.3-.1 3.3-1 .6-.6 1-1.6 1-2.8V6H13zm-9 6h5.2v4c0 .8-.2 1.4-.5 1.7-.6.6-1.6.6-2.5.5h-.3v1.5h.5c1 0 2.3-.1 3.3-1 .6-.6 1-1.6 1-2.8V6H4v6z" />
    </symbol>

    <symbol id="icon-wordpress-twitter" viewBox="0 0 24 24">
        <path
            d="M22.23 5.924c-.736.326-1.527.547-2.357.646.847-.508 1.498-1.312 1.804-2.27-.793.47-1.67.812-2.606.996C18.325 4.498 17.258 4 16.078 4c-2.266 0-4.103 1.837-4.103 4.103 0 .322.036.635.106.935-3.41-.17-6.433-1.804-8.457-4.287-.353.607-.556 1.312-.556 2.064 0 1.424.724 2.68 1.825 3.415-.673-.022-1.305-.207-1.86-.514v.052c0 1.988 1.415 3.647 3.293 4.023-.344.095-.707.145-1.08.145-.265 0-.522-.026-.773-.074.522 1.63 2.038 2.817 3.833 2.85-1.404 1.1-3.174 1.757-5.096 1.757-.332 0-.66-.02-.98-.057 1.816 1.164 3.973 1.843 6.29 1.843 7.547 0 11.675-6.252 11.675-11.675 0-.178-.004-.355-.012-.53.802-.578 1.497-1.3 2.047-2.124z" />
    </symbol>

    <symbol id="icon-julia-head-1" viewBox="0 0 1080 1080">
        <path
            d="M507.001 527.171V546H332.471V527.171L372.301 522.826C380.026 521.86 384.613 519.929 386.061 517.032C387.509 514.136 388.233 504.238 388.233 487.341V309.19H169.528V487.341C169.528 504.238 170.252 514.136 171.701 517.032C173.149 519.929 177.736 521.86 185.46 522.826L225.291 527.171V546H50.7611V527.171L90.5915 522.826C98.3162 521.86 102.903 519.929 104.351 517.032C105.8 514.136 106.524 504.238 106.524 487.341V112.21C106.524 95.3127 105.8 85.4154 104.351 82.5186C102.903 79.6219 98.3162 77.6907 90.5915 76.7252L50.7611 73.1042V53.5511H225.291V73.1042L185.46 76.7252C177.736 77.6907 173.149 79.6219 171.701 82.5186C170.252 85.4154 169.528 95.3127 169.528 112.21V286.016H388.233V112.21C388.233 95.3127 387.509 85.4154 386.061 82.5186C384.613 79.6219 380.026 77.6907 372.301 76.7252L332.471 73.1042V53.5511H507.001V73.1042L467.17 76.7252C459.445 77.6907 454.859 79.6219 453.411 82.5186C451.962 85.4154 451.238 95.3127 451.238 112.21V487.341C451.238 504.238 451.962 514.136 453.411 517.032C454.859 519.929 459.445 521.86 467.17 522.826L507.001 527.171ZM563.187 113.659L658.781 53.5511H710.198V487.341C710.198 504.238 710.922 514.136 712.371 517.032C713.819 519.929 718.405 521.86 726.13 522.826L765.961 527.171V546H576.947V527.171L631.261 522.826C638.986 522.343 643.573 520.653 645.021 517.757C646.469 514.377 647.193 504.238 647.193 487.341V88.3122L575.499 133.212L563.187 113.659Z"
            fill="#343434" />
        <line x1="49.7258" y1="721.29" x2="1035" y2="721.29" stroke="#7E7B7B" stroke-width="54.2021" />
        <line x1="49.7258" y1="865.829" x2="737.402" y2="865.829" stroke="#7E7B7B"
            stroke-width="54.2021" />
        <line x1="49.7258" y1="1010.37" x2="980.46" y2="1010.37" stroke="#7E7B7B"
            stroke-width="54.2021" />
    </symbol>

    <symbol id="icon-julia-head-2" viewBox="0 0 1080 1080">
        <path
            d="M507.001 527.171V546H332.471V527.171L372.301 522.826C380.026 521.86 384.613 519.929 386.061 517.032C387.509 514.136 388.233 504.238 388.233 487.341V309.19H169.528V487.341C169.528 504.238 170.252 514.136 171.701 517.032C173.149 519.929 177.736 521.86 185.46 522.826L225.291 527.171V546H50.7611V527.171L90.5915 522.826C98.3162 521.86 102.903 519.929 104.351 517.032C105.8 514.136 106.524 504.238 106.524 487.341V112.21C106.524 95.3127 105.8 85.4154 104.351 82.5186C102.903 79.6219 98.3162 77.6907 90.5915 76.7252L50.7611 73.1042V53.5511H225.291V73.1042L185.46 76.7252C177.736 77.6907 173.149 79.6219 171.701 82.5186C170.252 85.4154 169.528 95.3127 169.528 112.21V286.016H388.233V112.21C388.233 95.3127 387.509 85.4154 386.061 82.5186C384.613 79.6219 380.026 77.6907 372.301 76.7252L332.471 73.1042V53.5511H507.001V73.1042L467.17 76.7252C459.445 77.6907 454.859 79.6219 453.411 82.5186C451.962 85.4154 451.238 95.3127 451.238 112.21V487.341C451.238 504.238 451.962 514.136 453.411 517.032C454.859 519.929 459.445 521.86 467.17 522.826L507.001 527.171ZM857.208 402.61H876.037V546H585.637V507.618C585.637 474.305 591.189 446.545 602.294 424.336C613.398 402.128 627.64 383.299 645.021 367.849C662.884 351.917 681.955 337.433 702.232 324.398C719.612 312.811 736.51 300.983 752.925 288.913C769.34 276.843 782.858 262.118 793.48 244.737C804.584 226.874 810.136 204.665 810.136 178.112C810.136 141.419 802.894 114.142 788.41 96.2782C774.409 78.4149 754.615 69.4832 729.027 69.4832C695.714 69.4832 672.54 81.5531 659.505 105.693C646.952 129.35 643.09 163.386 647.918 207.803L584.913 196.216C580.085 170.146 582.016 145.765 590.707 123.073C599.88 100.382 616.053 82.0359 639.227 68.0349C662.401 53.5511 692.576 46.3092 729.751 46.3092C765.478 46.3092 794.445 52.5855 816.654 65.1381C838.862 77.6907 855.036 94.1057 865.175 114.383C875.313 134.66 880.383 156.386 880.383 179.56C880.383 206.114 875.313 228.322 865.175 246.185C855.036 264.049 841.759 278.774 825.344 290.361C808.929 301.948 791.066 312.328 771.754 321.501C752.442 330.191 733.613 339.365 715.267 349.02C697.404 358.193 680.989 369.056 666.022 381.609C651.539 394.162 639.469 409.37 629.813 427.233C620.64 444.613 615.088 466.098 613.157 491.686H799.997C816.895 491.686 827.034 490.72 830.413 488.789C834.276 486.375 837.173 481.064 839.104 472.857L857.208 402.61Z"
            fill="#343434" />
        <line x1="49.7258" y1="721.29" x2="1035" y2="721.29" stroke="#7E7B7B" stroke-width="54.2021" />
        <line x1="49.7258" y1="865.829" x2="737.402" y2="865.829" stroke="#7E7B7B"
            stroke-width="54.2021" />
        <line x1="49.7258" y1="1010.37" x2="980.46" y2="1010.37" stroke="#7E7B7B"
            stroke-width="54.2021" />
    </symbol>

    <symbol id="icon-julia-head-3" viewBox="0 0 1080 1080">
        <path
            d="M507.001 527.171V546H332.471V527.171L372.301 522.826C380.026 521.86 384.613 519.929 386.061 517.032C387.509 514.136 388.233 504.238 388.233 487.341V309.19H169.528V487.341C169.528 504.238 170.252 514.136 171.701 517.032C173.149 519.929 177.736 521.86 185.46 522.826L225.291 527.171V546H50.7611V527.171L90.5915 522.826C98.3162 521.86 102.903 519.929 104.351 517.032C105.8 514.136 106.524 504.238 106.524 487.341V112.21C106.524 95.3127 105.8 85.4154 104.351 82.5186C102.903 79.6219 98.3162 77.6907 90.5915 76.7252L50.7611 73.1042V53.5511H225.291V73.1042L185.46 76.7252C177.736 77.6907 173.149 79.6219 171.701 82.5186C170.252 85.4154 169.528 95.3127 169.528 112.21V286.016H388.233V112.21C388.233 95.3127 387.509 85.4154 386.061 82.5186C384.613 79.6219 380.026 77.6907 372.301 76.7252L332.471 73.1042V53.5511H507.001V73.1042L467.17 76.7252C459.445 77.6907 454.859 79.6219 453.411 82.5186C451.962 85.4154 451.238 95.3127 451.238 112.21V487.341C451.238 504.238 451.962 514.136 453.411 517.032C454.859 519.929 459.445 521.86 467.17 522.826L507.001 527.171ZM693.542 304.121H673.988V280.947H693.542C733.613 280.947 761.615 270.808 777.548 250.531C793.963 230.253 802.17 204.183 802.17 172.318C802.17 138.523 795.17 112.935 781.169 95.5541C767.168 78.1735 747.373 69.4832 721.785 69.4832C688.472 69.4832 665.298 81.5531 652.263 105.693C639.71 129.35 635.848 163.386 640.676 207.803L577.671 196.216C573.326 170.146 575.499 145.765 584.189 123.073C593.362 100.382 609.294 82.0359 631.985 68.0349C655.16 53.5511 685.334 46.3092 722.509 46.3092C758.236 46.3092 786.962 52.3441 808.688 64.4139C830.896 76.0009 847.07 91.4503 857.208 110.762C867.347 129.591 872.416 150.11 872.416 172.318C872.416 206.114 862.036 232.909 841.276 252.703C820.999 272.498 791.549 285.775 752.925 292.534C793.963 298.81 825.344 312.811 847.07 334.537C869.278 356.262 880.383 385.713 880.383 422.888C880.383 446.545 874.589 468.27 863.002 488.065C851.898 507.859 834.517 523.792 810.86 535.861C787.686 547.448 757.512 553.242 720.337 553.242C685.093 553.242 654.194 545.034 627.64 528.619C601.57 512.204 582.982 482.754 571.878 440.268L617.502 427.233C621.364 453.787 628.123 474.547 637.779 489.513C647.918 504.48 659.746 515.101 673.264 521.378C687.265 527.171 701.99 530.068 717.44 530.068C779.237 530.068 810.136 494.341 810.136 422.888C810.136 388.127 801.446 359.642 784.065 337.433C766.685 315.225 736.51 304.121 693.542 304.121Z"
            fill="#343434" />
        <line x1="49.7257" y1="721.29" x2="1035" y2="721.29" stroke="#7E7B7B" stroke-width="54.2021" />
        <line x1="49.7257" y1="865.829" x2="737.402" y2="865.829" stroke="#7E7B7B"
            stroke-width="54.2021" />
        <line x1="49.7257" y1="1010.37" x2="980.46" y2="1010.37" stroke="#7E7B7B"
            stroke-width="54.2021" />

    </symbol>

    <symbol id="icon-julia-head-4" viewBox="0 0 1080 1080">
        <path
            d="M507.001 527.171V546H332.471V527.171L372.301 522.826C380.026 521.86 384.613 519.929 386.061 517.032C387.509 514.136 388.233 504.238 388.233 487.341V309.19H169.528V487.341C169.528 504.238 170.252 514.136 171.701 517.032C173.149 519.929 177.736 521.86 185.46 522.826L225.291 527.171V546H50.7611V527.171L90.5915 522.826C98.3162 521.86 102.903 519.929 104.351 517.032C105.8 514.136 106.524 504.238 106.524 487.341V112.21C106.524 95.3127 105.8 85.4154 104.351 82.5186C102.903 79.6219 98.3162 77.6907 90.5915 76.7252L50.7611 73.1042V53.5511H225.291V73.1042L185.46 76.7252C177.736 77.6907 173.149 79.6219 171.701 82.5186C170.252 85.4154 169.528 95.3127 169.528 112.21V286.016H388.233V112.21C388.233 95.3127 387.509 85.4154 386.061 82.5186C384.613 79.6219 380.026 77.6907 372.301 76.7252L332.471 73.1042V53.5511H507.001V73.1042L467.17 76.7252C459.445 77.6907 454.859 79.6219 453.411 82.5186C451.962 85.4154 451.238 95.3127 451.238 112.21V487.341C451.238 504.238 451.962 514.136 453.411 517.032C454.859 519.929 459.445 521.86 467.17 522.826L507.001 527.171ZM762.34 487.341V418.543H553.049V395.369C577.671 369.298 598.914 343.951 616.778 319.329C634.641 294.223 650.09 268.394 663.126 241.84C676.161 215.287 687.507 186.802 697.163 156.386C707.301 125.487 716.474 91.2089 724.682 53.5511H801.446C782.134 121.625 753.891 182.698 716.716 236.771C679.541 290.844 635.124 343.71 583.465 395.369H762.34V281.671L825.344 271.532V395.369H881.107V418.543H825.344V487.341C825.344 504.238 826.068 514.136 827.517 517.032C828.965 519.929 833.552 521.86 841.276 522.826L881.107 527.171V546H692.093V527.171L746.407 522.826C754.132 522.343 758.719 520.653 760.167 517.757C761.615 514.377 762.34 504.238 762.34 487.341Z"
            fill="#343434" />
        <line x1="49.7258" y1="721.29" x2="1035" y2="721.29" stroke="#7E7B7B" stroke-width="54.2021" />
        <line x1="49.7258" y1="865.829" x2="737.402" y2="865.829" stroke="#7E7B7B"
            stroke-width="54.2021" />
        <line x1="49.7258" y1="1010.37" x2="980.46" y2="1010.37" stroke="#7E7B7B"
            stroke-width="54.2021" />

    </symbol>

    <symbol id="icon-julia-head-5" viewBox="0 0 1080 1080">
        <path
            d="M507.001 527.171V546H332.471V527.171L372.301 522.826C380.026 521.86 384.613 519.929 386.061 517.032C387.509 514.136 388.233 504.238 388.233 487.341V309.19H169.528V487.341C169.528 504.238 170.252 514.136 171.701 517.032C173.149 519.929 177.736 521.86 185.46 522.826L225.291 527.171V546H50.7611V527.171L90.5915 522.826C98.3162 521.86 102.903 519.929 104.351 517.032C105.8 514.136 106.524 504.238 106.524 487.341V112.21C106.524 95.3127 105.8 85.4154 104.351 82.5186C102.903 79.6219 98.3162 77.6907 90.5915 76.7252L50.7611 73.1042V53.5511H225.291V73.1042L185.46 76.7252C177.736 77.6907 173.149 79.6219 171.701 82.5186C170.252 85.4154 169.528 95.3127 169.528 112.21V286.016H388.233V112.21C388.233 95.3127 387.509 85.4154 386.061 82.5186C384.613 79.6219 380.026 77.6907 372.301 76.7252L332.471 73.1042V53.5511H507.001V73.1042L467.17 76.7252C459.445 77.6907 454.859 79.6219 453.411 82.5186C451.962 85.4154 451.238 95.3127 451.238 112.21V487.341C451.238 504.238 451.962 514.136 453.411 517.032C454.859 519.929 459.445 521.86 467.17 522.826L507.001 527.171ZM834.759 -5.83247H853.588V109.314H630.537L621.847 264.29C635.848 254.634 651.056 247.392 667.471 242.565C684.369 237.737 701.749 235.323 719.612 235.323C767.409 235.323 805.308 250.048 833.31 279.498C861.312 308.466 875.313 347.331 875.313 396.093C875.313 423.612 870.002 449.441 859.381 473.581C848.76 497.238 831.62 516.55 807.964 531.516C784.79 546 754.374 553.242 716.716 553.242C683.403 553.242 654.435 545.034 629.813 528.619C605.19 511.722 587.327 482.271 576.223 440.268L621.847 427.233C627.64 466.822 638.986 493.858 655.884 508.342C672.782 522.826 691.852 530.068 713.095 530.068C743.028 530.068 765.719 519.205 781.169 497.479C797.101 475.271 805.067 441.475 805.067 396.093C805.067 356.021 798.066 323.432 784.065 298.327C770.547 272.739 746.407 259.945 711.646 259.945C695.231 259.945 678.334 263.083 660.953 269.36C643.573 275.153 626.433 285.533 609.536 300.5L595.052 293.982L608.811 53.5511H788.41C805.791 53.5511 816.171 52.8269 819.551 51.3785C823.413 49.4473 826.068 43.8952 827.517 34.7221L834.759 -5.83247Z"
            fill="#343434" />
        <line x1="49.7256" y1="721.29" x2="1035" y2="721.29" stroke="#7E7B7B" stroke-width="54.2021" />
        <line x1="49.7256" y1="865.829" x2="737.402" y2="865.829" stroke="#7E7B7B"
            stroke-width="54.2021" />
        <line x1="49.7256" y1="1010.37" x2="980.46" y2="1010.37" stroke="#7E7B7B"
            stroke-width="54.2021" />
    </symbol>

    <symbol id="icon-julia-head-6" viewBox="0 0 1080 1080">
        <path
            d="M507.001 527.171V546H332.471V527.171L372.301 522.826C380.026 521.86 384.613 519.929 386.061 517.032C387.509 514.136 388.233 504.238 388.233 487.341V309.19H169.528V487.341C169.528 504.238 170.252 514.136 171.701 517.032C173.149 519.929 177.736 521.86 185.46 522.826L225.291 527.171V546H50.7611V527.171L90.5915 522.826C98.3162 521.86 102.903 519.929 104.351 517.032C105.8 514.136 106.524 504.238 106.524 487.341V112.21C106.524 95.3127 105.8 85.4154 104.351 82.5186C102.903 79.6219 98.3162 77.6907 90.5915 76.7252L50.7611 73.1042V53.5511H225.291V73.1042L185.46 76.7252C177.736 77.6907 173.149 79.6219 171.701 82.5186C170.252 85.4154 169.528 95.3127 169.528 112.21V286.016H388.233V112.21C388.233 95.3127 387.509 85.4154 386.061 82.5186C384.613 79.6219 380.026 77.6907 372.301 76.7252L332.471 73.1042V53.5511H507.001V73.1042L467.17 76.7252C459.445 77.6907 454.859 79.6219 453.411 82.5186C451.962 85.4154 451.238 95.3127 451.238 112.21V487.341C451.238 504.238 451.962 514.136 453.411 517.032C454.859 519.929 459.445 521.86 467.17 522.826L507.001 527.171ZM915.868 407.68C915.868 437.13 909.35 462.96 896.315 485.168C883.279 506.894 865.175 523.792 842 535.861C818.826 547.448 791.79 553.242 760.891 553.242C708.267 553.242 667.471 533.93 638.503 495.307C610.018 456.683 595.776 399.955 595.776 325.122V279.498C595.776 199.837 610.501 141.178 639.952 103.52C669.402 65.3795 708.991 46.3092 758.719 46.3092C791.066 46.3092 818.585 52.8269 841.276 65.8623C864.45 78.8977 881.59 96.0369 892.694 117.28C904.281 138.523 908.626 161.697 905.729 186.802L843.449 197.665C847.311 156.145 842 124.522 827.517 102.796C813.033 80.5875 789.859 69.4832 757.994 69.4832C740.614 69.4832 724.682 74.0698 710.198 83.2428C696.197 91.9331 685.093 108.348 676.885 132.488C668.678 156.627 664.574 191.388 664.574 236.771V307.017C678.575 289.154 694.749 276.36 713.095 268.635C731.924 260.428 751.96 256.324 773.202 256.324C816.171 256.324 850.691 269.36 876.762 295.43C902.832 321.501 915.868 356.504 915.868 400.438V407.68ZM664.574 367.849C664.574 408.887 668.195 441.234 675.437 464.891C683.162 488.548 694.266 505.445 708.75 515.584C723.716 525.24 741.58 530.068 762.34 530.068C788.41 530.068 809.171 521.136 824.62 503.273C840.552 484.927 848.518 453.545 848.518 409.128V401.886C848.518 364.711 841.518 335.744 827.517 314.984C813.516 293.741 791.79 283.119 762.34 283.119C744.959 283.119 727.337 287.706 709.474 296.879C692.093 306.052 677.127 321.501 664.574 343.227V367.849Z"
            fill="#343434" />
        <line x1="49.7256" y1="721.29" x2="1035" y2="721.29" stroke="#7E7B7B" stroke-width="54.2021" />
        <line x1="49.7256" y1="865.829" x2="737.402" y2="865.829" stroke="#7E7B7B"
            stroke-width="54.2021" />
        <line x1="49.7256" y1="1010.37" x2="980.46" y2="1010.37" stroke="#7E7B7B"
            stroke-width="54.2021" />
    </symbol>

    <symbol id="icon-material-check-list" viewBox="0 -960 960 960">
        <path
            d="M222-200 80-342l56-56 85 85 170-170 56 57-225 226Zm0-320L80-662l56-56 85 85 170-170 56 57-225 226Zm298 240v-80h360v80H520Zm0-320v-80h360v80H520Z" />
    </symbol>


    <!-- tags -->

    <symbol id="icon-wordpress-bold" viewBox="0 0 24 24">
        <path
            d="M14.7 11.3c1-.6 1.5-1.6 1.5-3 0-2.3-1.3-3.4-4-3.4H7v14h5.8c1.4 0 2.5-.3 3.3-1 .8-.7 1.2-1.7 1.2-2.9.1-1.9-.8-3.1-2.6-3.7zm-5.1-4h2.3c.6 0 1.1.1 1.4.4.3.3.5.7.5 1.2s-.2 1-.5 1.2c-.3.3-.8.4-1.4.4H9.6V7.3zm4.6 9c-.4.3-1 .4-1.7.4H9.6v-3.9h2.9c.7 0 1.3.2 1.7.5.4.3.6.8.6 1.5s-.2 1.2-.6 1.5z">
        </path>
    </symbol>
    <symbol id="icon-wordpress-italic" viewBox="0 0 24 24">
        <path d="M12.5 5L10 19h1.9l2.5-14z"></path>
    </symbol>
    <symbol id="icon-wordpress-anchor" viewBox="0 0 24 24">
        <path
            d="M10 17.389H8.444A5.194 5.194 0 1 1 8.444 7H10v1.5H8.444a3.694 3.694 0 0 0 0 7.389H10v1.5ZM14 7h1.556a5.194 5.194 0 0 1 0 10.39H14v-1.5h1.556a3.694 3.694 0 0 0 0-7.39H14V7Zm-4.5 6h5v-1.5h-5V13Z">
        </path>
    </symbol>

    <symbol id="icon-wordpress-underline" viewBox="0 0 24 24">

    </symbol>


    <symbol id="icon-wordpress-strike-through" viewBox="0 0 24 24">
        <path
            d="M9.1 9v-.5c0-.6.2-1.1.7-1.4.5-.3 1.2-.5 2-.5.7 0 1.4.1 2.1.3.7.2 1.4.5 2.1.9l.2-1.9c-.6-.3-1.2-.5-1.9-.7-.8-.1-1.6-.2-2.4-.2-1.5 0-2.7.3-3.6 1-.8.7-1.2 1.5-1.2 2.6V9h2zM20 12H4v1h8.3c.3.1.6.2.8.3.5.2.9.5 1.1.8.3.3.4.7.4 1.2 0 .7-.2 1.1-.8 1.5-.5.3-1.2.5-2.1.5-.8 0-1.6-.1-2.4-.3-.8-.2-1.5-.5-2.2-.8L7 18.1c.5.2 1.2.4 2 .6.8.2 1.6.3 2.4.3 1.7 0 3-.3 3.9-1 .9-.7 1.3-1.6 1.3-2.8 0-.9-.2-1.7-.7-2.2H20v-1z">
        </path>
    </symbol>

    <symbol id="icon-wordpress-code-mark" viewBox="0 0 24 24">
        <path
            d="M20.8 10.7l-4.3-4.3-1.1 1.1 4.3 4.3c.1.1.1.3 0 .4l-4.3 4.3 1.1 1.1 4.3-4.3c.7-.8.7-1.9 0-2.6zM4.2 11.8l4.3-4.3-1-1-4.3 4.3c-.7.7-.7 1.8 0 2.5l4.3 4.3 1.1-1.1-4.3-4.3c-.2-.1-.2-.3-.1-.4z">
        </path>
    </symbol>

    <symbol id="icon-wordpress-equation-mark" viewBox="0 0 24 24">
        <path
            d="M16.9 10.3l.8-1.3c.4-.6.7-1.2.9-1.6.2-.4.3-.8.3-1.2 0-.3-.1-.7-.2-1-.2-.2-.4-.4-.7-.6-.3-.2-.6-.3-1-.3s-.8.1-1.1.2c-.3.1-.7.3-1 .6l.1 1.3c.3-.3.5-.5.8-.6s.6-.2.9-.2c.3 0 .5.1.7.2.2.2.2.4.2.7 0 .3-.1.5-.2.8-.1.3-.4.7-.8 1.3l-1.8 2.8h4.3v-1.2h-2.2zm-2.8-3.1h-2L9.5 11 6.9 7.2h-2l3.6 5.3L4.7 18h2l2.7-4 2.7 4h2l-3.8-5.5 3.8-5.3z">
        </path>
    </symbol>

    <symbol id="icon-material-underline" viewBox="0 -960 960 960">
        <path
            d="M213.85-155v-60h532.3v60h-532.3ZM480-298.85q-93.31 0-145.65-56.65Q282-412.15 282-507.31v-316.15h74.15v319.84q0 60.62 32.23 97.16T480-369.92q59.39 0 91.62-36.54 32.23-36.54 32.23-97.16v-319.84H678v316.15q0 95.16-52.35 151.81-52.34 56.65-145.65 56.65Z" />
    </symbol>


    <symbol id="icon-material-link" viewBox="0 -960 960 960">
        <path
            d="M440-280H280q-83 0-141.5-58.5T80-480q0-83 58.5-141.5T280-680h160v80H280q-50 0-85 35t-35 85q0 50 35 85t85 35h160v80ZM320-440v-80h320v80H320Zm200 160v-80h160q50 0 85-35t35-85q0-50-35-85t-85-35H520v-80h160q83 0 141.5 58.5T880-480q0 83-58.5 141.5T680-280H520Z" />
    </symbol>

    <symbol id="icon-material-italic" viewBox="0 -960 960 960">
        <path
            d="M215.77-215v-72.31h152.69l129.62-385.38H345.39V-745h366.15v72.31H571.15L441.54-287.31h140.38V-215H215.77Z" />
    </symbol>

    <symbol id="icon-wordpress-chevron-down" viewBox="0 0 24 24">
        <path d="M17.5 11.6L12 16l-5.5-4.4.9-1.2L12 14l4.5-3.6 1 1.2z"></path>
    </symbol>

    <symbol id="icon-wordpress-chevron-up" viewBox="0 0 24 24">
        <path d="M6.5 12.4L12 8l5.5 4.4-.9 1.2L12 10l-4.5 3.6-1-1.2z"></path>
    </symbol>


    <symbol id="icon-material-trash" viewBox="0 -960 960 960">

        <path
            d="M292.31-140q-29.92 0-51.12-21.19Q220-182.39 220-212.31V-720h-40v-60h180v-35.38h240V-780h180v60h-40v507.69Q740-182 719-161q-21 21-51.31 21H292.31ZM680-720H280v507.69q0 5.39 3.46 8.85t8.85 3.46h375.38q4.62 0 8.46-3.85 3.85-3.84 3.85-8.46V-720ZM376.16-280h59.99v-360h-59.99v360Zm147.69 0h59.99v-360h-59.99v360ZM280-720v520-520Z" />
    </symbol>

    <symbol id="icon-material-duplicate" viewBox="0 -960 960 960">

        <path
            d="M360-240q-33 0-56.5-23.5T280-320v-480q0-33 23.5-56.5T360-880h360q33 0 56.5 23.5T800-800v480q0 33-23.5 56.5T720-240H360Zm0-80h360v-480H360v480ZM200-80q-33 0-56.5-23.5T120-160v-560h80v560h440v80H200Zm160-240v-480 480Z" />
    </symbol>

    <symbol id="icon-material-clear" viewBox="0 -960 960 960">
        <path
            d="M182.15-140q-14.38-3.62-26.46-15.69-12.07-12.08-15.69-26.46L777.85-820q15.61 4.23 26.76 15.69 11.16 11.46 16 26.46L182.15-140Zm213.31 0 76.85-76.85V-140h-76.85ZM560-227.69v-60h300v60H560ZM140-395.46v-84.31L480.23-820h84.31L140-395.46Zm490.85 20.07L820-564.54v84.31L715.15-375.39h-84.3ZM140-693.08v-54.61Q140-778 161-799q21-21 51.31-21h54.61L140-693.08Z" />
    </symbol>

    <symbol id="icon-material-small-check" viewBox="0 -960 960 960">
        <path d="M400-304 240-464l56-56 104 104 264-264 56 56-320 320Z" />
    </symbol>


    <symbol id="icon-material-more" viewBox="0 0 24 24">
        <path d="M13 19h-2v-2h2v2zm0-6h-2v-2h2v2zm0-6h-2V5h2v2z" />
    </symbol>

    <symbol id="icon-material-letter" viewBox="0 -960 960 960">
        <path
            d="M276-280h76l40-112h176l40 112h76L520-720h-80L276-280Zm138-176 64-182h4l64 182H414Zm66 376q-83 0-156-31.5T197-197q-54-54-85.5-127T80-480q0-83 31.5-156T197-763q54-54 127-85.5T480-880q83 0 156 31.5T763-763q54 54 85.5 127T880-480q0 83-31.5 156T763-197q-54 54-127 85.5T480-80Zm0-400Zm0 320q133 0 226.5-93.5T800-480q0-133-93.5-226.5T480-800q-133 0-226.5 93.5T160-480q0 133 93.5 226.5T480-160Z" />
    </symbol>

    <symbol id="icon-material-format" viewBox="0 -960 960 960">
        <path
            d="M200-200v-80h560v80H200Zm76-160 164-440h80l164 440h-76l-38-112H392l-40 112h-76Zm138-176h132l-64-182h-4l-64 182Z" />
    </symbol>

    <symbol id="icon-material-eraser" viewBox="0 -960 960 960">
        <path
        d="M690-240h190v80H610l80-80Zm-500 80-85-85q-23-23-23.5-57t22.5-58l440-456q23-24 56.5-24t56.5 23l199 199q23 23 23 57t-23 57L520-160H190Zm296-80 314-322-198-198-442 456 64 64h262Zm-6-240Z" />
    </symbol>
</svg>