<svg shape-rendering="geometricPrecision">

    <symbol id="icon-plus" viewBox="0 0 24 24" aria-hidden="true">
        <path d="M11 12.5V17.5H12.5V12.5H17.5V11H12.5V6H11V11H6V12.5H11Z" />
    </symbol>

    <symbol id="icon-material-drag" viewBox="0 -960 960 960" aria-hidden="true">
        <path d="M360-160q-33 0-56.5-23.5T280-240q0-33 23.5-56.5T360-320q33 0 56.5 23.5T440-240q0 33-23.5 56.5T360-160Zm240 0q-33 0-56.5-23.5T520-240q0-33 23.5-56.5T600-320q33 0 56.5 23.5T680-240q0 33-23.5 56.5T600-160ZM360-400q-33 0-56.5-23.5T280-480q0-33 23.5-56.5T360-560q33 0 56.5 23.5T440-480q0 33-23.5 56.5T360-400Zm240 0q-33 0-56.5-23.5T520-480q0-33 23.5-56.5T600-560q33 0 56.5 23.5T680-480q0 33-23.5 56.5T600-400ZM360-640q-33 0-56.5-23.5T280-720q0-33 23.5-56.5T360-800q33 0 56.5 23.5T440-720q0 33-23.5 56.5T360-640Zm240 0q-33 0-56.5-23.5T520-720q0-33 23.5-56.5T600-800q33 0 56.5 23.5T680-720q0 33-23.5 56.5T600-640Z" />
    </symbol>

    <symbol id="icon-material-paragraph" viewBox="0 -960 960 960" aria-hidden="true">
        <path d="M360-160v-240q-83 0-141.5-58.5T160-600q0-83 58.5-141.5T360-800h360v80h-80v560h-80v-560H440v560h-80Z" />
    </symbol>

    <symbol id="icon-wordpress-paragraph" viewBox="0 0 24 24">
        <path d="m9.99609 14v-.2251l.00391.0001v6.225h1.5v-14.5h2.5v14.5h1.5v-14.5h3v-1.5h-8.50391c-2.76142 0-5 2.23858-5 5 0 2.7614 2.23858 5 5 5z" />
    </symbol>

    <symbol id="icon-wordpress-list" viewBox="0 0 24 24">
        <path d="M4 4v1.5h16V4H4zm8 8.5h8V11h-8v1.5zM4 20h16v-1.5H4V20zm4-8c0-1.1-.9-2-2-2s-2 .9-2 2 .9 2 2 2 2-.9 2-2z" />
    </symbol>

    <symbol id="icon-wordpress-numbered-list" viewBox="0 -960 960 960">
        <path d="M163.85-100q-10.34 0-17.09-6.75-6.76-6.75-6.76-17.08 0-10.32 6.76-17.09 6.75-6.77 17.09-6.77H240V-190h-36.15q-10.34 0-17.09-6.75-6.76-6.75-6.76-17.08 0-10.32 6.76-17.09 6.75-6.77 17.09-6.77H240V-280h-76.15q-10.34 0-17.09-6.75-6.76-6.75-6.76-17.08 0-10.32 6.76-17.09 6.75-6.77 17.09-6.77h90q14.38 0 24.11 9.73 9.73 9.73 9.73 24.11v47.7q0 14.38-9.73 24.11-9.73 9.73-24.11 9.73 14.38 0 24.11 9.73 9.73 9.73 9.73 24.12v44.61q0 14.39-9.73 24.12T253.85-100h-90Zm3.46-266.15q-11.46 0-19.39-7.93Q140-382 140-393.46V-470q0-14.38 9.73-24.12 9.73-9.73 24.12-9.73H240v-42.3h-76.15q-10.34 0-17.09-6.76-6.76-6.75-6.76-17.07 0-10.33 6.76-17.1 6.75-6.77 17.09-6.77h90q14.38 0 24.11 9.73 9.73 9.74 9.73 24.12v70q0 14.38-9.73 24.12-9.73 9.73-24.11 9.73h-66.16v42.3h76.16q10.33 0 17.09 6.76 6.75 6.75 6.75 17.07 0 10.33-6.75 17.1-6.76 6.77-17.09 6.77h-96.54Zm56.56-266.16q-10.33 0-17.1-6.75-6.77-6.76-6.77-17.09v-156.16h-36.15q-10.34 0-17.09-6.75-6.76-6.75-6.76-17.07 0-10.33 6.76-17.1 6.75-6.77 17.09-6.77h56.92q11.46 0 19.19 7.73t7.73 19.19v176.93q0 10.33-6.75 17.09-6.75 6.75-17.07 6.75ZM402.31-210q-12.75 0-21.38-8.63-8.62-8.63-8.62-21.38 0-12.76 8.62-21.37 8.63-8.62 21.38-8.62H790q12.75 0 21.37 8.63 8.63 8.63 8.63 21.38 0 12.76-8.63 21.37Q802.75-210 790-210H402.31Zm0-240q-12.75 0-21.38-8.63-8.62-8.63-8.62-21.38 0-12.76 8.62-21.37 8.63-8.62 21.38-8.62H790q12.75 0 21.37 8.63 8.63 8.63 8.63 21.38 0 12.76-8.63 21.37Q802.75-450 790-450H402.31Zm0-240q-12.75 0-21.38-8.63-8.62-8.63-8.62-21.38 0-12.76 8.62-21.37 8.63-8.62 21.38-8.62H790q12.75 0 21.37 8.63 8.63 8.63 8.63 21.38 0 12.76-8.63 21.37Q802.75-690 790-690H402.31Z" />

    </symbol>

    <symbol id="icon-wordpress-bulleted-list" viewBox="0 0 512 512">
        <path fill="none" stroke="currentColor" stroke-linecap="round" stroke-linejoin="round" stroke-width="32" d="M160 144h288M160 256h288M160 368h288" />
        <circle cx="80" cy="144" r="16" fill="none" stroke="currentColor" stroke-linecap="round" stroke-linejoin="round" stroke-width="32" />
        <circle cx="80" cy="256" r="16" fill="none" stroke="currentColor" stroke-linecap="round" stroke-linejoin="round" stroke-width="32" />
        <circle cx="80" cy="368" r="16" fill="none" stroke="currentColor" stroke-linecap="round" stroke-linejoin="round" stroke-width="32" />
    </symbol>

    <symbol id="icon-wordpress-separator" viewBox="0 0 24 24">
        <path d="M4.5 12.5v4H3V7h1.5v3.987h15V7H21v9.5h-1.5v-4h-15Z" />
    </symbol>

    <symbol id="icon-wordpress-quote" viewBox="0 0 24 24">
        <path d="M13 6v6h5.2v4c0 .8-.2 1.4-.5 1.7-.6.6-1.6.6-2.5.5h-.3v1.5h.5c1 0 2.3-.1 3.3-1 .6-.6 1-1.6 1-2.8V6H13zm-9 6h5.2v4c0 .8-.2 1.4-.5 1.7-.6.6-1.6.6-2.5.5h-.3v1.5h.5c1 0 2.3-.1 3.3-1 .6-.6 1-1.6 1-2.8V6H4v6z" />
    </symbol>

    <symbol id="icon-wordpress-twitter" viewBox="0 0 24 24">
        <path d="M22.23 5.924c-.736.326-1.527.547-2.357.646.847-.508 1.498-1.312 1.804-2.27-.793.47-1.67.812-2.606.996C18.325 4.498 17.258 4 16.078 4c-2.266 0-4.103 1.837-4.103 4.103 0 .322.036.635.106.935-3.41-.17-6.433-1.804-8.457-4.287-.353.607-.556 1.312-.556 2.064 0 1.424.724 2.68 1.825 3.415-.673-.022-1.305-.207-1.86-.514v.052c0 1.988 1.415 3.647 3.293 4.023-.344.095-.707.145-1.08.145-.265 0-.522-.026-.773-.074.522 1.63 2.038 2.817 3.833 2.85-1.404 1.1-3.174 1.757-5.096 1.757-.332 0-.66-.02-.98-.057 1.816 1.164 3.973 1.843 6.29 1.843 7.547 0 11.675-6.252 11.675-11.675 0-.178-.004-.355-.012-.53.802-.578 1.497-1.3 2.047-2.124z" />
    </symbol>

    <symbol id="icon-julia-head-1" viewBox="0 0 1080 1080">
        <path d="M507.001 527.171V546H332.471V527.171L372.301 522.826C380.026 521.86 384.613 519.929 386.061 517.032C387.509 514.136 388.233 504.238 388.233 487.341V309.19H169.528V487.341C169.528 504.238 170.252 514.136 171.701 517.032C173.149 519.929 177.736 521.86 185.46 522.826L225.291 527.171V546H50.7611V527.171L90.5915 522.826C98.3162 521.86 102.903 519.929 104.351 517.032C105.8 514.136 106.524 504.238 106.524 487.341V112.21C106.524 95.3127 105.8 85.4154 104.351 82.5186C102.903 79.6219 98.3162 77.6907 90.5915 76.7252L50.7611 73.1042V53.5511H225.291V73.1042L185.46 76.7252C177.736 77.6907 173.149 79.6219 171.701 82.5186C170.252 85.4154 169.528 95.3127 169.528 112.21V286.016H388.233V112.21C388.233 95.3127 387.509 85.4154 386.061 82.5186C384.613 79.6219 380.026 77.6907 372.301 76.7252L332.471 73.1042V53.5511H507.001V73.1042L467.17 76.7252C459.445 77.6907 454.859 79.6219 453.411 82.5186C451.962 85.4154 451.238 95.3127 451.238 112.21V487.341C451.238 504.238 451.962 514.136 453.411 517.032C454.859 519.929 459.445 521.86 467.17 522.826L507.001 527.171ZM563.187 113.659L658.781 53.5511H710.198V487.341C710.198 504.238 710.922 514.136 712.371 517.032C713.819 519.929 718.405 521.86 726.13 522.826L765.961 527.171V546H576.947V527.171L631.261 522.826C638.986 522.343 643.573 520.653 645.021 517.757C646.469 514.377 647.193 504.238 647.193 487.341V88.3122L575.499 133.212L563.187 113.659Z" fill="#343434" />
        <line x1="49.7258" y1="721.29" x2="1035" y2="721.29" stroke="#7E7B7B" stroke-width="54.2021" />
        <line x1="49.7258" y1="865.829" x2="737.402" y2="865.829" stroke="#7E7B7B" stroke-width="54.2021" />
        <line x1="49.7258" y1="1010.37" x2="980.46" y2="1010.37" stroke="#7E7B7B" stroke-width="54.2021" />
    </symbol>

    <symbol id="icon-julia-head-2" viewBox="0 0 1080 1080">
        <path d="M507.001 527.171V546H332.471V527.171L372.301 522.826C380.026 521.86 384.613 519.929 386.061 517.032C387.509 514.136 388.233 504.238 388.233 487.341V309.19H169.528V487.341C169.528 504.238 170.252 514.136 171.701 517.032C173.149 519.929 177.736 521.86 185.46 522.826L225.291 527.171V546H50.7611V527.171L90.5915 522.826C98.3162 521.86 102.903 519.929 104.351 517.032C105.8 514.136 106.524 504.238 106.524 487.341V112.21C106.524 95.3127 105.8 85.4154 104.351 82.5186C102.903 79.6219 98.3162 77.6907 90.5915 76.7252L50.7611 73.1042V53.5511H225.291V73.1042L185.46 76.7252C177.736 77.6907 173.149 79.6219 171.701 82.5186C170.252 85.4154 169.528 95.3127 169.528 112.21V286.016H388.233V112.21C388.233 95.3127 387.509 85.4154 386.061 82.5186C384.613 79.6219 380.026 77.6907 372.301 76.7252L332.471 73.1042V53.5511H507.001V73.1042L467.17 76.7252C459.445 77.6907 454.859 79.6219 453.411 82.5186C451.962 85.4154 451.238 95.3127 451.238 112.21V487.341C451.238 504.238 451.962 514.136 453.411 517.032C454.859 519.929 459.445 521.86 467.17 522.826L507.001 527.171ZM857.208 402.61H876.037V546H585.637V507.618C585.637 474.305 591.189 446.545 602.294 424.336C613.398 402.128 627.64 383.299 645.021 367.849C662.884 351.917 681.955 337.433 702.232 324.398C719.612 312.811 736.51 300.983 752.925 288.913C769.34 276.843 782.858 262.118 793.48 244.737C804.584 226.874 810.136 204.665 810.136 178.112C810.136 141.419 802.894 114.142 788.41 96.2782C774.409 78.4149 754.615 69.4832 729.027 69.4832C695.714 69.4832 672.54 81.5531 659.505 105.693C646.952 129.35 643.09 163.386 647.918 207.803L584.913 196.216C580.085 170.146 582.016 145.765 590.707 123.073C599.88 100.382 616.053 82.0359 639.227 68.0349C662.401 53.5511 692.576 46.3092 729.751 46.3092C765.478 46.3092 794.445 52.5855 816.654 65.1381C838.862 77.6907 855.036 94.1057 865.175 114.383C875.313 134.66 880.383 156.386 880.383 179.56C880.383 206.114 875.313 228.322 865.175 246.185C855.036 264.049 841.759 278.774 825.344 290.361C808.929 301.948 791.066 312.328 771.754 321.501C752.442 330.191 733.613 339.365 715.267 349.02C697.404 358.193 680.989 369.056 666.022 381.609C651.539 394.162 639.469 409.37 629.813 427.233C620.64 444.613 615.088 466.098 613.157 491.686H799.997C816.895 491.686 827.034 490.72 830.413 488.789C834.276 486.375 837.173 481.064 839.104 472.857L857.208 402.61Z" fill="#343434" />
        <line x1="49.7258" y1="721.29" x2="1035" y2="721.29" stroke="#7E7B7B" stroke-width="54.2021" />
        <line x1="49.7258" y1="865.829" x2="737.402" y2="865.829" stroke="#7E7B7B" stroke-width="54.2021" />
        <line x1="49.7258" y1="1010.37" x2="980.46" y2="1010.37" stroke="#7E7B7B" stroke-width="54.2021" />
    </symbol>

    <symbol id="icon-julia-head-3" viewBox="0 0 1080 1080">
        <path d="M507.001 527.171V546H332.471V527.171L372.301 522.826C380.026 521.86 384.613 519.929 386.061 517.032C387.509 514.136 388.233 504.238 388.233 487.341V309.19H169.528V487.341C169.528 504.238 170.252 514.136 171.701 517.032C173.149 519.929 177.736 521.86 185.46 522.826L225.291 527.171V546H50.7611V527.171L90.5915 522.826C98.3162 521.86 102.903 519.929 104.351 517.032C105.8 514.136 106.524 504.238 106.524 487.341V112.21C106.524 95.3127 105.8 85.4154 104.351 82.5186C102.903 79.6219 98.3162 77.6907 90.5915 76.7252L50.7611 73.1042V53.5511H225.291V73.1042L185.46 76.7252C177.736 77.6907 173.149 79.6219 171.701 82.5186C170.252 85.4154 169.528 95.3127 169.528 112.21V286.016H388.233V112.21C388.233 95.3127 387.509 85.4154 386.061 82.5186C384.613 79.6219 380.026 77.6907 372.301 76.7252L332.471 73.1042V53.5511H507.001V73.1042L467.17 76.7252C459.445 77.6907 454.859 79.6219 453.411 82.5186C451.962 85.4154 451.238 95.3127 451.238 112.21V487.341C451.238 504.238 451.962 514.136 453.411 517.032C454.859 519.929 459.445 521.86 467.17 522.826L507.001 527.171ZM693.542 304.121H673.988V280.947H693.542C733.613 280.947 761.615 270.808 777.548 250.531C793.963 230.253 802.17 204.183 802.17 172.318C802.17 138.523 795.17 112.935 781.169 95.5541C767.168 78.1735 747.373 69.4832 721.785 69.4832C688.472 69.4832 665.298 81.5531 652.263 105.693C639.71 129.35 635.848 163.386 640.676 207.803L577.671 196.216C573.326 170.146 575.499 145.765 584.189 123.073C593.362 100.382 609.294 82.0359 631.985 68.0349C655.16 53.5511 685.334 46.3092 722.509 46.3092C758.236 46.3092 786.962 52.3441 808.688 64.4139C830.896 76.0009 847.07 91.4503 857.208 110.762C867.347 129.591 872.416 150.11 872.416 172.318C872.416 206.114 862.036 232.909 841.276 252.703C820.999 272.498 791.549 285.775 752.925 292.534C793.963 298.81 825.344 312.811 847.07 334.537C869.278 356.262 880.383 385.713 880.383 422.888C880.383 446.545 874.589 468.27 863.002 488.065C851.898 507.859 834.517 523.792 810.86 535.861C787.686 547.448 757.512 553.242 720.337 553.242C685.093 553.242 654.194 545.034 627.64 528.619C601.57 512.204 582.982 482.754 571.878 440.268L617.502 427.233C621.364 453.787 628.123 474.547 637.779 489.513C647.918 504.48 659.746 515.101 673.264 521.378C687.265 527.171 701.99 530.068 717.44 530.068C779.237 530.068 810.136 494.341 810.136 422.888C810.136 388.127 801.446 359.642 784.065 337.433C766.685 315.225 736.51 304.121 693.542 304.121Z" fill="#343434" />
        <line x1="49.7257" y1="721.29" x2="1035" y2="721.29" stroke="#7E7B7B" stroke-width="54.2021" />
        <line x1="49.7257" y1="865.829" x2="737.402" y2="865.829" stroke="#7E7B7B" stroke-width="54.2021" />
        <line x1="49.7257" y1="1010.37" x2="980.46" y2="1010.37" stroke="#7E7B7B" stroke-width="54.2021" />

    </symbol>

    <symbol id="icon-julia-head-4" viewBox="0 0 1080 1080">
        <path d="M507.001 527.171V546H332.471V527.171L372.301 522.826C380.026 521.86 384.613 519.929 386.061 517.032C387.509 514.136 388.233 504.238 388.233 487.341V309.19H169.528V487.341C169.528 504.238 170.252 514.136 171.701 517.032C173.149 519.929 177.736 521.86 185.46 522.826L225.291 527.171V546H50.7611V527.171L90.5915 522.826C98.3162 521.86 102.903 519.929 104.351 517.032C105.8 514.136 106.524 504.238 106.524 487.341V112.21C106.524 95.3127 105.8 85.4154 104.351 82.5186C102.903 79.6219 98.3162 77.6907 90.5915 76.7252L50.7611 73.1042V53.5511H225.291V73.1042L185.46 76.7252C177.736 77.6907 173.149 79.6219 171.701 82.5186C170.252 85.4154 169.528 95.3127 169.528 112.21V286.016H388.233V112.21C388.233 95.3127 387.509 85.4154 386.061 82.5186C384.613 79.6219 380.026 77.6907 372.301 76.7252L332.471 73.1042V53.5511H507.001V73.1042L467.17 76.7252C459.445 77.6907 454.859 79.6219 453.411 82.5186C451.962 85.4154 451.238 95.3127 451.238 112.21V487.341C451.238 504.238 451.962 514.136 453.411 517.032C454.859 519.929 459.445 521.86 467.17 522.826L507.001 527.171ZM762.34 487.341V418.543H553.049V395.369C577.671 369.298 598.914 343.951 616.778 319.329C634.641 294.223 650.09 268.394 663.126 241.84C676.161 215.287 687.507 186.802 697.163 156.386C707.301 125.487 716.474 91.2089 724.682 53.5511H801.446C782.134 121.625 753.891 182.698 716.716 236.771C679.541 290.844 635.124 343.71 583.465 395.369H762.34V281.671L825.344 271.532V395.369H881.107V418.543H825.344V487.341C825.344 504.238 826.068 514.136 827.517 517.032C828.965 519.929 833.552 521.86 841.276 522.826L881.107 527.171V546H692.093V527.171L746.407 522.826C754.132 522.343 758.719 520.653 760.167 517.757C761.615 514.377 762.34 504.238 762.34 487.341Z" fill="#343434" />
        <line x1="49.7258" y1="721.29" x2="1035" y2="721.29" stroke="#7E7B7B" stroke-width="54.2021" />
        <line x1="49.7258" y1="865.829" x2="737.402" y2="865.829" stroke="#7E7B7B" stroke-width="54.2021" />
        <line x1="49.7258" y1="1010.37" x2="980.46" y2="1010.37" stroke="#7E7B7B" stroke-width="54.2021" />

    </symbol>

    <symbol id="icon-julia-head-5" viewBox="0 0 1080 1080">
        <path d="M507.001 527.171V546H332.471V527.171L372.301 522.826C380.026 521.86 384.613 519.929 386.061 517.032C387.509 514.136 388.233 504.238 388.233 487.341V309.19H169.528V487.341C169.528 504.238 170.252 514.136 171.701 517.032C173.149 519.929 177.736 521.86 185.46 522.826L225.291 527.171V546H50.7611V527.171L90.5915 522.826C98.3162 521.86 102.903 519.929 104.351 517.032C105.8 514.136 106.524 504.238 106.524 487.341V112.21C106.524 95.3127 105.8 85.4154 104.351 82.5186C102.903 79.6219 98.3162 77.6907 90.5915 76.7252L50.7611 73.1042V53.5511H225.291V73.1042L185.46 76.7252C177.736 77.6907 173.149 79.6219 171.701 82.5186C170.252 85.4154 169.528 95.3127 169.528 112.21V286.016H388.233V112.21C388.233 95.3127 387.509 85.4154 386.061 82.5186C384.613 79.6219 380.026 77.6907 372.301 76.7252L332.471 73.1042V53.5511H507.001V73.1042L467.17 76.7252C459.445 77.6907 454.859 79.6219 453.411 82.5186C451.962 85.4154 451.238 95.3127 451.238 112.21V487.341C451.238 504.238 451.962 514.136 453.411 517.032C454.859 519.929 459.445 521.86 467.17 522.826L507.001 527.171ZM834.759 -5.83247H853.588V109.314H630.537L621.847 264.29C635.848 254.634 651.056 247.392 667.471 242.565C684.369 237.737 701.749 235.323 719.612 235.323C767.409 235.323 805.308 250.048 833.31 279.498C861.312 308.466 875.313 347.331 875.313 396.093C875.313 423.612 870.002 449.441 859.381 473.581C848.76 497.238 831.62 516.55 807.964 531.516C784.79 546 754.374 553.242 716.716 553.242C683.403 553.242 654.435 545.034 629.813 528.619C605.19 511.722 587.327 482.271 576.223 440.268L621.847 427.233C627.64 466.822 638.986 493.858 655.884 508.342C672.782 522.826 691.852 530.068 713.095 530.068C743.028 530.068 765.719 519.205 781.169 497.479C797.101 475.271 805.067 441.475 805.067 396.093C805.067 356.021 798.066 323.432 784.065 298.327C770.547 272.739 746.407 259.945 711.646 259.945C695.231 259.945 678.334 263.083 660.953 269.36C643.573 275.153 626.433 285.533 609.536 300.5L595.052 293.982L608.811 53.5511H788.41C805.791 53.5511 816.171 52.8269 819.551 51.3785C823.413 49.4473 826.068 43.8952 827.517 34.7221L834.759 -5.83247Z" fill="#343434" />
        <line x1="49.7256" y1="721.29" x2="1035" y2="721.29" stroke="#7E7B7B" stroke-width="54.2021" />
        <line x1="49.7256" y1="865.829" x2="737.402" y2="865.829" stroke="#7E7B7B" stroke-width="54.2021" />
        <line x1="49.7256" y1="1010.37" x2="980.46" y2="1010.37" stroke="#7E7B7B" stroke-width="54.2021" />
    </symbol>

    <symbol id="icon-julia-head-6" viewBox="0 0 1080 1080">
        <path d="M507.001 527.171V546H332.471V527.171L372.301 522.826C380.026 521.86 384.613 519.929 386.061 517.032C387.509 514.136 388.233 504.238 388.233 487.341V309.19H169.528V487.341C169.528 504.238 170.252 514.136 171.701 517.032C173.149 519.929 177.736 521.86 185.46 522.826L225.291 527.171V546H50.7611V527.171L90.5915 522.826C98.3162 521.86 102.903 519.929 104.351 517.032C105.8 514.136 106.524 504.238 106.524 487.341V112.21C106.524 95.3127 105.8 85.4154 104.351 82.5186C102.903 79.6219 98.3162 77.6907 90.5915 76.7252L50.7611 73.1042V53.5511H225.291V73.1042L185.46 76.7252C177.736 77.6907 173.149 79.6219 171.701 82.5186C170.252 85.4154 169.528 95.3127 169.528 112.21V286.016H388.233V112.21C388.233 95.3127 387.509 85.4154 386.061 82.5186C384.613 79.6219 380.026 77.6907 372.301 76.7252L332.471 73.1042V53.5511H507.001V73.1042L467.17 76.7252C459.445 77.6907 454.859 79.6219 453.411 82.5186C451.962 85.4154 451.238 95.3127 451.238 112.21V487.341C451.238 504.238 451.962 514.136 453.411 517.032C454.859 519.929 459.445 521.86 467.17 522.826L507.001 527.171ZM915.868 407.68C915.868 437.13 909.35 462.96 896.315 485.168C883.279 506.894 865.175 523.792 842 535.861C818.826 547.448 791.79 553.242 760.891 553.242C708.267 553.242 667.471 533.93 638.503 495.307C610.018 456.683 595.776 399.955 595.776 325.122V279.498C595.776 199.837 610.501 141.178 639.952 103.52C669.402 65.3795 708.991 46.3092 758.719 46.3092C791.066 46.3092 818.585 52.8269 841.276 65.8623C864.45 78.8977 881.59 96.0369 892.694 117.28C904.281 138.523 908.626 161.697 905.729 186.802L843.449 197.665C847.311 156.145 842 124.522 827.517 102.796C813.033 80.5875 789.859 69.4832 757.994 69.4832C740.614 69.4832 724.682 74.0698 710.198 83.2428C696.197 91.9331 685.093 108.348 676.885 132.488C668.678 156.627 664.574 191.388 664.574 236.771V307.017C678.575 289.154 694.749 276.36 713.095 268.635C731.924 260.428 751.96 256.324 773.202 256.324C816.171 256.324 850.691 269.36 876.762 295.43C902.832 321.501 915.868 356.504 915.868 400.438V407.68ZM664.574 367.849C664.574 408.887 668.195 441.234 675.437 464.891C683.162 488.548 694.266 505.445 708.75 515.584C723.716 525.24 741.58 530.068 762.34 530.068C788.41 530.068 809.171 521.136 824.62 503.273C840.552 484.927 848.518 453.545 848.518 409.128V401.886C848.518 364.711 841.518 335.744 827.517 314.984C813.516 293.741 791.79 283.119 762.34 283.119C744.959 283.119 727.337 287.706 709.474 296.879C692.093 306.052 677.127 321.501 664.574 343.227V367.849Z" fill="#343434" />
        <line x1="49.7256" y1="721.29" x2="1035" y2="721.29" stroke="#7E7B7B" stroke-width="54.2021" />
        <line x1="49.7256" y1="865.829" x2="737.402" y2="865.829" stroke="#7E7B7B" stroke-width="54.2021" />
        <line x1="49.7256" y1="1010.37" x2="980.46" y2="1010.37" stroke="#7E7B7B" stroke-width="54.2021" />
    </symbol>

    <symbol id="icon-material-check-list" viewBox="0 0 512 512">
        <path fill="none" stroke="currentColor" stroke-linecap="round" stroke-linejoin="round" stroke-width="32" d="M352 176L217.6 336 160 272" />
        <rect x="64" y="64" width="384" height="384" rx="48" ry="48" fill="none" stroke="currentColor" stroke-linejoin="round" stroke-width="32" />
    </symbol>


    <!-- tags -->

    <symbol id="icon-wordpress-bold" viewBox="0 0 24 24">
        <path d="M14.7 11.3c1-.6 1.5-1.6 1.5-3 0-2.3-1.3-3.4-4-3.4H7v14h5.8c1.4 0 2.5-.3 3.3-1 .8-.7 1.2-1.7 1.2-2.9.1-1.9-.8-3.1-2.6-3.7zm-5.1-4h2.3c.6 0 1.1.1 1.4.4.3.3.5.7.5 1.2s-.2 1-.5 1.2c-.3.3-.8.4-1.4.4H9.6V7.3zm4.6 9c-.4.3-1 .4-1.7.4H9.6v-3.9h2.9c.7 0 1.3.2 1.7.5.4.3.6.8.6 1.5s-.2 1.2-.6 1.5z">
        </path>
    </symbol>
    <symbol id="icon-wordpress-italic" viewBox="0 0 24 24">
        <path d="M12.5 5L10 19h1.9l2.5-14z"></path>
    </symbol>
    <symbol id="icon-wordpress-anchor" viewBox="0 0 24 24">
        <path d="M10 17.389H8.444A5.194 5.194 0 1 1 8.444 7H10v1.5H8.444a3.694 3.694 0 0 0 0 7.389H10v1.5ZM14 7h1.556a5.194 5.194 0 0 1 0 10.39H14v-1.5h1.556a3.694 3.694 0 0 0 0-7.39H14V7Zm-4.5 6h5v-1.5h-5V13Z">
        </path>
    </symbol>

    <symbol id="icon-wordpress-underline" viewBox="0 0 24 24">

    </symbol>


    <symbol id="icon-wordpress-strike-through" viewBox="0 0 24 24">
        <path d="M9.1 9v-.5c0-.6.2-1.1.7-1.4.5-.3 1.2-.5 2-.5.7 0 1.4.1 2.1.3.7.2 1.4.5 2.1.9l.2-1.9c-.6-.3-1.2-.5-1.9-.7-.8-.1-1.6-.2-2.4-.2-1.5 0-2.7.3-3.6 1-.8.7-1.2 1.5-1.2 2.6V9h2zM20 12H4v1h8.3c.3.1.6.2.8.3.5.2.9.5 1.1.8.3.3.4.7.4 1.2 0 .7-.2 1.1-.8 1.5-.5.3-1.2.5-2.1.5-.8 0-1.6-.1-2.4-.3-.8-.2-1.5-.5-2.2-.8L7 18.1c.5.2 1.2.4 2 .6.8.2 1.6.3 2.4.3 1.7 0 3-.3 3.9-1 .9-.7 1.3-1.6 1.3-2.8 0-.9-.2-1.7-.7-2.2H20v-1z">
        </path>
    </symbol>

    <symbol id="icon-wordpress-code-mark" viewBox="0 0 512 512">
        <path fill="none" stroke="currentColor" stroke-linecap="round" stroke-linejoin="round" stroke-width="32" d="M160 368L32 256l128-112M352 368l128-112-128-112M304 96l-96 320" />
    </symbol>

    <symbol id="icon-wordpress-equation-mark" viewBox="0 0 24 24">
        <path d="M16.9 10.3l.8-1.3c.4-.6.7-1.2.9-1.6.2-.4.3-.8.3-1.2 0-.3-.1-.7-.2-1-.2-.2-.4-.4-.7-.6-.3-.2-.6-.3-1-.3s-.8.1-1.1.2c-.3.1-.7.3-1 .6l.1 1.3c.3-.3.5-.5.8-.6s.6-.2.9-.2c.3 0 .5.1.7.2.2.2.2.4.2.7 0 .3-.1.5-.2.8-.1.3-.4.7-.8 1.3l-1.8 2.8h4.3v-1.2h-2.2zm-2.8-3.1h-2L9.5 11 6.9 7.2h-2l3.6 5.3L4.7 18h2l2.7-4 2.7 4h2l-3.8-5.5 3.8-5.3z">
        </path>
    </symbol>

    <symbol id="icon-material-underline" viewBox="0 -960 960 960">
        <path d="M243.85-155q-12.75 0-21.38-8.63-8.62-8.63-8.62-21.39 0-12.75 8.62-21.37 8.63-8.61 21.38-8.61h472.3q12.75 0 21.38 8.63 8.62 8.63 8.62 21.38 0 12.76-8.62 21.37-8.63 8.62-21.38 8.62h-472.3ZM480-298.85q-93.31 0-145.65-56.65Q282-412.15 282-507.31v-279.38q0-15.14 11.17-25.96 11.17-10.81 26.31-10.81 15.13 0 25.9 10.81 10.77 10.82 10.77 25.96v283.07q0 60.62 32.23 97.16T480-369.92q59.39 0 91.62-36.54 32.23-36.54 32.23-97.16v-283.07q0-15.14 11.17-25.96 11.17-10.81 26.31-10.81 15.13 0 25.9 10.81Q678-801.83 678-786.69v279.38q0 95.16-52.35 151.81-52.34 56.65-145.65 56.65Z" />
    </symbol>


    <!-- <symbol id="icon-material-link" viewBox="0 0 512 512">
        <path d="M208 352h-64a96 96 0 010-192h64M304 160h64a96 96 0 010 192h-64M163.29 256h187.42" fill="none" stroke="currentColor" stroke-linecap="round" stroke-linejoin="round" stroke-width="36" />
    </symbol> -->


    

    <symbol id="icon-material-link" viewBox="0 -960 960 960">
        <path d="M440-280H280q-83 0-141.5-58.5T80-480q0-83 58.5-141.5T280-680h160v80H280q-50 0-85 35t-35 85q0 50 35 85t85 35h160v80ZM320-440v-80h320v80H320Zm200 160v-80h160q50 0 85-35t35-85q0-50-35-85t-85-35H520v-80h160q83 0 141.5 58.5T880-480q0 83-58.5 141.5T680-280H520Z"/>
    </symbol>

    <symbol id="icon-material-italic" viewBox="0 -960 960 960">
        <path d="M215.77-215v-72.31h152.69l129.62-385.38H345.39V-745h366.15v72.31H571.15L441.54-287.31h140.38V-215H215.77Z" />
    </symbol>

    <symbol id="icon-wordpress-chevron-down" viewBox="0 0 24 24">
        <path d="M17.5 11.6L12 16l-5.5-4.4.9-1.2L12 14l4.5-3.6 1 1.2z"></path>
    </symbol>

    <symbol id="icon-wordpress-chevron-up" viewBox="0 0 24 24">
        <path d="M6.5 12.4L12 8l5.5 4.4-.9 1.2L12 10l-4.5 3.6-1-1.2z"></path>
    </symbol>


    <symbol id="icon-material-trash" viewBox="0 0 512 512">

        <path d="M112 112l20 320c.95 18.49 14.4 32 32 32h184c17.67 0 30.87-13.51 32-32l20-320" fill="none" stroke="currentColor" stroke-linecap="round" stroke-linejoin="round" stroke-width="32" />
        <path stroke="currentColor" stroke-linecap="round" stroke-miterlimit="10" stroke-width="32" d="M80 112h352" />
        <path d="M192 112V72h0a23.93 23.93 0 0124-24h80a23.93 23.93 0 0124 24h0v40M256 176v224M184 176l8 224M328 176l-8 224" fill="none" stroke="currentColor" stroke-linecap="round" stroke-linejoin="round" stroke-width="32" />
    </symbol>

    <symbol id="icon-material-copy" viewBox="0 0 512 512">

        <rect x="128" y="128" width="336" height="336" rx="57" ry="57" fill="none" stroke="currentColor" stroke-linejoin="round" stroke-width="32" />
        <path d="M383.5 128l.5-24a56.16 56.16 0 00-56-56H112a64.19 64.19 0 00-64 64v216a56.16 56.16 0 0056 56h24" fill="none" stroke="currentColor" stroke-linecap="round" stroke-linejoin="round" stroke-width="32" />
    </symbol>

    <symbol id="icon-material-clear" viewBox="0 0 512 512">
        <path d="M320 146s24.36-12-64-12a160 160 0 10160 160" fill="none" stroke="currentColor" stroke-linecap="round" stroke-miterlimit="10" stroke-width="32" />
        <path fill="none" stroke="currentColor" stroke-linecap="round" stroke-linejoin="round" stroke-width="32" d="M256 58l80 80-80 80" />
    </symbol>

    <symbol id="icon-material-small-check" viewBox="0 -960 960 960">
        <path d="M400-304 240-464l56-56 104 104 264-264 56 56-320 320Z" />
    </symbol>


    <symbol id="icon-material-more" viewBox="0 -960 960 960">
        <path d="M480-189.23q-24.75 0-42.37-17.63Q420-224.48 420-249.23q0-24.75 17.63-42.38 17.62-17.62 42.37-17.62 24.75 0 42.37 17.62Q540-273.98 540-249.23q0 24.75-17.63 42.37-17.62 17.63-42.37 17.63ZM480-420q-24.75 0-42.37-17.63Q420-455.25 420-480q0-24.75 17.63-42.37Q455.25-540 480-540q24.75 0 42.37 17.63Q540-504.75 540-480q0 24.75-17.63 42.37Q504.75-420 480-420Zm0-230.77q-24.75 0-42.37-17.62Q420-686.02 420-710.77q0-24.75 17.63-42.37 17.62-17.63 42.37-17.63 24.75 0 42.37 17.63Q540-735.52 540-710.77q0 24.75-17.63 42.38-17.62 17.62-42.37 17.62Z" />
    </symbol>

    <symbol id="icon-material-letter" viewBox="0 -960 960 960">
        <path d="M276-280h76l40-112h176l40 112h76L520-720h-80L276-280Zm138-176 64-182h4l64 182H414Zm66 376q-83 0-156-31.5T197-197q-54-54-85.5-127T80-480q0-83 31.5-156T197-763q54-54 127-85.5T480-880q83 0 156 31.5T763-763q54 54 85.5 127T880-480q0 83-31.5 156T763-197q-54 54-127 85.5T480-80Zm0-400Zm0 320q133 0 226.5-93.5T800-480q0-133-93.5-226.5T480-800q-133 0-226.5 93.5T160-480q0 133 93.5 226.5T480-160Z" />
    </symbol>

    <symbol id="icon-material-format" viewBox="0 0 512 512">
        <path fill="none" stroke="currentColor" stroke-linecap="round" stroke-linejoin="round" stroke-width="32" d="M32 415.5l120-320 120 320M230 303.5H74M326 239.5c12.19-28.69 41-48 74-48h0c46 0 80 32 80 80v144" />
        <path d="M320 358.5c0 36 26.86 58 60 58 54 0 100-27 100-106v-15c-20 0-58 1-92 5-32.77 3.86-68 19-68 58z" fill="none" stroke="currentColor" stroke-linecap="round" stroke-linejoin="round" stroke-width="32" />
    </symbol>

    <symbol id="icon-material-eraser" viewBox="0 -960 960 960">
        <path d="M690-240h190v80H610l80-80Zm-500 80-85-85q-23-23-23.5-57t22.5-58l440-456q23-24 56.5-24t56.5 23l199 199q23 23 23 57t-23 57L520-160H190Zm296-80 314-322-198-198-442 456 64 64h262Zm-6-240Z" />
    </symbol>


    <symbol id="icon-material-cut" viewBox="0 0 512 512">
        <circle cx="104" cy="152" r="56" fill="none" stroke="currentColor" stroke-linecap="round" stroke-linejoin="round" stroke-width="32" />
        <circle cx="104" cy="360" r="56" fill="none" stroke="currentColor" stroke-linecap="round" stroke-linejoin="round" stroke-width="32" />
        <path d="M157 175l-11 15 37 15s3.46-6.42 7-10z" fill="none" stroke="currentColor" stroke-linecap="square" stroke-miterlimit="10" stroke-width="32" />
        <path d="M154.17 334.43L460 162c-2.5-6.7-28-12-64-4-29.12 6.47-121.16 29.05-159.16 56.05C205.85 236.06 227 272 192 298c-25.61 19-44.43 22.82-44.43 22.82zM344.47 278.24L295 306.67c14.23 6.74 65.54 33.27 117 36.33 14.92.89 30 .39 39-6z" fill="none" stroke="currentColor" stroke-linecap="round" stroke-miterlimit="10" stroke-width="32" />
        <circle cx="256" cy="240" r="32" fill="none" stroke="currentColor" stroke-miterlimit="10" stroke-width="32" />
    </symbol>

    <symbol id="icon-material-paste" viewBox="0 0 512 512">
        <path d="M336 64h32a48 48 0 0148 48v320a48 48 0 01-48 48H144a48 48 0 01-48-48V112a48 48 0 0148-48h32" fill="none" stroke="currentColor" stroke-linejoin="round" stroke-width="32" />
        <rect x="176" y="32" width="160" height="64" rx="26.13" ry="26.13" fill="none" stroke="currentColor" stroke-linejoin="round" stroke-width="32" />
    </symbol>

    <symbol id="icon-material-duplicate" viewBox="0 0 512 512">
        <path d="M434.8 137.65l-149.36-68.1c-16.19-7.4-42.69-7.4-58.88 0L77.3 137.65c-17.6 8-17.6 21.09 0 29.09l148 67.5c16.89 7.7 44.69 7.7 61.58 0l148-67.5c17.52-8 17.52-21.1-.08-29.09zM160 308.52l-82.7 37.11c-17.6 8-17.6 21.1 0 29.1l148 67.5c16.89 7.69 44.69 7.69 61.58 0l148-67.5c17.6-8 17.6-21.1 0-29.1l-79.94-38.47" fill="none" stroke="currentColor" stroke-linecap="round" stroke-linejoin="round" stroke-width="32" />
        <path d="M160 204.48l-82.8 37.16c-17.6 8-17.6 21.1 0 29.1l148 67.49c16.89 7.7 44.69 7.7 61.58 0l148-67.49c17.7-8 17.7-21.1.1-29.1L352 204.48" fill="none" stroke="currentColor" stroke-linecap="round" stroke-linejoin="round" stroke-width="32" />
    </symbol>


    <symbol id="icon-material-code-block" viewBox="0 0 512 512">
        <rect x="96" y="48" width="320" height="416" rx="48" ry="48" fill="none" stroke="currentColor" stroke-linejoin="round" stroke-width="32" />
        <path fill="none" stroke="currentColor" stroke-linecap="round" stroke-linejoin="round" stroke-width="32" d="M176 128h160M176 208h160M176 288h80" />
    </symbol>

    <symbol id="icon-material-code-block-2" viewBox="0 -960 960 960">
        <path d="m327.54-480 71.2-71.21q7.44-7.41 7.63-18.02.19-10.62-7.63-18.44-7.56-7.56-17.95-7.56-10.38 0-18.46 7.56l-85.48 85.75q-5.21 4.95-7.31 10.35-2.1 5.41-2.1 11.69 0 6.29 2.1 11.57t7.31 10.23l86.54 86.54q7.4 7.44 17.97 7.63 10.58.19 18.43-7.63 7.57-7.8 7.57-18.22 0-10.42-7.57-17.98L327.54-480Zm304.92 0-72.25 72.26q-7.44 7.18-7.5 17.78-.07 10.6 7.62 18.42 7.7 7.82 18.1 7.82 10.4 0 18.18-7.82l86.87-86.62q4.88-4.87 6.98-10.27 2.1-5.41 2.1-11.69 0-6.29-2.1-11.57t-6.98-10.15l-86.87-86.62q-3.38-3.8-8.21-5.62-4.84-1.82-9.67-1.82t-9.63 1.7q-4.81 1.69-8.67 5.61-7.79 8.19-7.79 18.48 0 10.29 7.57 17.85L632.46-480ZM202.57-140q-25.79 0-44.18-18.39T140-202.57v-554.86q0-25.79 18.39-44.18T202.57-820h554.86q25.79 0 44.18 18.39T820-757.43v554.86q0 25.79-18.39 44.18T757.43-140H202.57Zm0-50.26h554.86q4.62 0 8.47-3.84 3.84-3.85 3.84-8.47v-554.86q0-4.62-3.84-8.47-3.85-3.84-8.47-3.84H202.57q-4.62 0-8.47 3.84-3.84 3.85-3.84 8.47v554.86q0 4.62 3.84 8.47 3.85 3.84 8.47 3.84Zm-12.31-579.48v579.48-579.48Z"/>
    </symbol>

    <symbol id="icon-material-aperture" viewBox="0 0 512 512">
        <path d="M448 256c0-106-86-192-192-192S64 150 64 256s86 192 192 192 192-86 192-192z" fill="none" stroke="currentColor" stroke-miterlimit="10" stroke-width="32"/>
        <path fill="none" stroke="currentColor" stroke-linecap="round" stroke-linejoin="round" stroke-width="32" d="M360 94.59V296M443.13 212.87L296 360M417.41 360H216M299.13 443.13l-144-144M152 416V216M68.87 299.13l144-144M94.59 152H288M212.87 68.87L360 216"/>
    </symbol>


    <symbol id="icon-material-check-list-2" viewBox="0 -960 960 960">
        <path d="m227.18-299.69 156.77-156.77q7.48-7.18 17.71-7.07 10.24.12 17.93 7.68 6.97 7.63 6.97 17.79t-7.23 17.6L249.69-250.62q-9.4 9.36-21.94 9.36-12.54 0-21.9-9.36l-88.54-88.53q-7.23-7.24-7.04-17.5.19-10.27 7.42-17.5 7.23-7.23 17.57-7.03 10.33.21 17.43 7.03l74.49 74.46Zm0-304.62 156.77-156.77q7.48-7.18 17.71-7.06 10.24.12 17.93 7.68 6.97 7.62 6.97 17.78 0 10.17-7.23 17.6L249.69-555.23q-9.4 9.36-21.94 9.36-12.54 0-21.9-9.36l-88.54-88.54q-7.23-7.23-7.04-17.5.19-10.27 7.42-17.5 7.23-7.23 17.57-7.02 10.33.2 17.43 7.02l74.49 74.46Zm318.33 301.74q-10.68 0-17.9-7.26-7.23-7.26-7.23-18 0-10.73 7.23-17.86 7.22-7.13 17.9-7.13h289.75q10.67 0 17.9 7.26 7.22 7.27 7.22 18 0 10.74-7.22 17.87-7.23 7.12-17.9 7.12H545.51Zm0-304.61q-10.68 0-17.9-7.26-7.23-7.27-7.23-18 0-10.74 7.23-17.87 7.22-7.12 17.9-7.12h289.75q10.67 0 17.9 7.26 7.22 7.26 7.22 18 0 10.73-7.22 17.86-7.23 7.13-17.9 7.13H545.51Z"/>
    </symbol>


    <symbol id="icon-material-code-inline" viewBox="0 0 512 512">
        <path fill="none" stroke="currentColor" stroke-linecap="round" stroke-linejoin="round" stroke-width="32" d="M160 368L32 256l128-112M352 368l128-112-128-112"/>
    </symbol>

    <symbol id="icon-material-table" viewBox="0 -960 960 960">
        <path d="M212.31-140Q182-140 161-161q-21-21-21-51.31v-535.38Q140-778 161-799q21-21 51.31-21h535.38Q778-820 799-799q21 21 21 51.31v535.38Q820-182 799-161q-21 21-51.31 21H212.31Zm0-60h134.15v-146.46H200v134.15q0 5.39 3.46 8.85t8.85 3.46Zm194.15 0h147.08v-146.46H406.46V-200Zm207.08 0h134.15q5.39 0 8.85-3.46t3.46-8.85v-134.15H613.54V-200ZM200-406.46h146.46v-147.08H200v147.08Zm206.46 0h147.08v-147.08H406.46v147.08Zm207.08 0H760v-147.08H613.54v147.08ZM200-613.54h146.46V-760H212.31q-5.39 0-8.85 3.46t-3.46 8.85v134.15Zm206.46 0h147.08V-760H406.46v146.46Zm207.08 0H760v-134.15q0-5.39-3.46-8.85t-8.85-3.46H613.54v146.46Z"/>
    </symbol>

    <symbol id="icon-material-column-right" viewBox="0 -960 960 960">
        <path d="M600-140q-30.31 0-51.31-21-21-21-21-51.31v-535.38q0-30.31 21-51.31 21-21 51.31-21h135.38q30.31 0 51.31 21 21 21 21 51.31v535.38q0 30.31-21 51.31-21 21-51.31 21H600Zm-375.38 0q-30.31 0-51.31-21-21-21-21-51.31v-535.38q0-30.31 21-51.31 21-21 51.31-21H360q30.31 0 51.31 21 21 21 21 51.31v535.38q0 30.31-21 51.31-21 21-51.31 21H224.62Zm-12.31-607.69v535.38q0 4.62 3.85 8.46Q220-200 224.62-200H360q4.62 0 8.46-3.85 3.85-3.84 3.85-8.46v-535.38q0-4.62-3.85-8.46Q364.62-760 360-760H224.62q-4.62 0-8.46 3.85-3.85 3.84-3.85 8.46Z"/>
    </symbol>

    <symbol id="icon-material-column-left" viewBox="0 -960 960 960">
        <path d="M224.62-140q-30.31 0-51.31-21-21-21-21-51.31v-535.38q0-30.31 21-51.31 21-21 51.31-21H360q30.31 0 51.31 21 21 21 21 51.31v535.38q0 30.31-21 51.31-21 21-51.31 21H224.62ZM600-140q-30.31 0-51.31-21-21-21-21-51.31v-535.38q0-30.31 21-51.31 21-21 51.31-21h135.38q30.31 0 51.31 21 21 21 21 51.31v535.38q0 30.31-21 51.31-21 21-51.31 21H600Zm147.69-607.69q0-4.62-3.85-8.46Q740-760 735.38-760H600q-4.62 0-8.46 3.85-3.85 3.84-3.85 8.46v535.38q0 4.62 3.85 8.46Q595.38-200 600-200h135.38q4.62 0 8.46-3.85 3.85-3.84 3.85-8.46v-535.38Z"/>
    </symbol>

    <symbol id="icon-material-row-below" viewBox="0 -960 960 960">
        <path d="M212.31-152.31q-30.31 0-51.31-21-21-21-21-51.31V-360q0-30.31 21-51.31 21-21 51.31-21h535.38q30.31 0 51.31 21 21 21 21 51.31v135.38q0 30.31-21 51.31-21 21-51.31 21H212.31Zm0-375.38q-30.31 0-51.31-21-21-21-21-51.31v-135.38q0-30.31 21-51.31 21-21 51.31-21h535.38q30.31 0 51.31 21 21 21 21 51.31V-600q0 30.31-21 51.31-21 21-51.31 21H212.31Zm535.38-220H212.31q-4.62 0-8.46 3.85Q200-740 200-735.38V-600q0 4.62 3.85 8.46 3.84 3.85 8.46 3.85h535.38q4.62 0 8.46-3.85Q760-595.38 760-600v-135.38q0-4.62-3.85-8.46-3.84-3.85-8.46-3.85Z"/>
    </symbol>

    <symbol id="icon-material-row-above" viewBox="0 -960 960 960">
        <path d="M212.31-527.69q-30.31 0-51.31-21-21-21-21-51.31v-135.38q0-30.31 21-51.31 21-21 51.31-21h535.38q30.31 0 51.31 21 21 21 21 51.31V-600q0 30.31-21 51.31-21 21-51.31 21H212.31Zm0 375.38q-30.31 0-51.31-21-21-21-21-51.31V-360q0-30.31 21-51.31 21-21 51.31-21h535.38q30.31 0 51.31 21 21 21 21 51.31v135.38q0 30.31-21 51.31-21 21-51.31 21H212.31Zm0-60h535.38q4.62 0 8.46-3.85Q760-220 760-224.62V-360q0-4.62-3.85-8.46-3.84-3.85-8.46-3.85H212.31q-4.62 0-8.46 3.85Q200-364.62 200-360v135.38q0 4.62 3.85 8.46 3.84 3.85 8.46 3.85Z"/>
    </symbol>

    <symbol id="icon-material-delete-sweep" viewBox="0 -960 960 960">
        <path d="M597.69-250v-60h140v60h-140Zm0-320v-60h260v60h-260Zm0 160v-60h220v60h-220ZM142.31-640h-40v-60h154.61v-47.69h130.77V-700h154.62v60h-40v347.69q0 30.31-21 51.31-21 21-51.31 21H214.62q-30.31 0-51.31-21-21-21-21-51.31V-640Zm60 0v347.69q0 4.62 3.84 8.46Q210-280 214.62-280H430q4.61 0 8.46-3.85 3.85-3.84 3.85-8.46V-640h-240Zm0 0v360-360Z"/>
    </symbol>

    <symbol id="icon-ionic-close-circle" viewBox="0 0 512 512">
        <path d="M448 256c0-106-86-192-192-192S64 150 64 256s86 192 192 192 192-86 192-192z" fill="none" stroke="currentColor" stroke-miterlimit="10" stroke-width="32"/>
        <path fill="none" stroke="currentColor" stroke-linecap="round" stroke-linejoin="round" stroke-width="32" d="M320 320L192 192M192 320l128-128"/>

    </symbol>

    <symbol id="icon-material-callout" viewBox="0 -960 960 960">
        <path d="M140-184.62v-60h680v60H140Zm0-530.76v-60h680v60H140ZM212.31-340Q182-340 161-361q-21-21-21-51.31v-135.38Q140-578 161-599q21-21 51.31-21h535.38Q778-620 799-599q21 21 21 51.31v135.38Q820-382 799-361q-21 21-51.31 21H212.31Zm0-60h535.38q4.62 0 8.46-3.85 3.85-3.84 3.85-8.46v-135.38q0-4.62-3.85-8.46-3.84-3.85-8.46-3.85H212.31q-4.62 0-8.46 3.85-3.85 3.84-3.85 8.46v135.38q0 4.62 3.85 8.46 3.84 3.85 8.46 3.85ZM200-560v160-160Z"/>
    </symbol>

    <symbol id="icon-material-image" viewBox="0 -960 960 960">
        <path d="M162.57-180q-25.79 0-44.18-18.39T100-242.57v-474.86q0-25.79 18.39-44.18T162.57-780h634.86q25.79 0 44.18 18.39T860-717.43v474.86q0 25.79-18.39 44.18T797.43-180H162.57Zm0-50.26h634.86q4.62 0 8.47-3.84 3.84-3.85 3.84-8.47v-474.86q0-4.62-3.84-8.47-3.85-3.84-8.47-3.84H162.57q-4.62 0-8.47 3.84-3.84 3.85-3.84 8.47v474.86q0 4.62 3.84 8.47 3.85 3.84 8.47 3.84Zm284.76-111.79-68.51-90.1q-4.95-6.03-12.37-6.23-7.42-.21-12.37 5.95l-66.46 87.3q-6.16 8.16-1.67 16.64 4.49 8.49 13.85 8.49h363.89q9.03 0 13.6-8.49 4.58-8.48-1.04-16.64l-98.76-133.46q-4.95-6.41-12.57-6.41-7.61 0-12.56 6.41L447.33-342.05ZM150.26-230.26v-499.48 499.48Z"/>
    </symbol>

    <symbol id="icon-material-video" viewBox="0 -960 960 960">
        <path d="M390-318.46 641.54-480 390-641.54v323.08ZM172.31-180Q142-180 121-201q-21-21-21-51.31v-455.38Q100-738 121-759q21-21 51.31-21h615.38Q818-780 839-759q21 21 21 51.31v455.38Q860-222 839-201q-21 21-51.31 21H172.31Zm0-60h615.38q4.62 0 8.46-3.85 3.85-3.84 3.85-8.46v-455.38q0-4.62-3.85-8.46-3.84-3.85-8.46-3.85H172.31q-4.62 0-8.46 3.85-3.85 3.84-3.85 8.46v455.38q0 4.62 3.85 8.46 3.84 3.85 8.46 3.85ZM160-240v-480 480Z"/>
    </symbol>

    <symbol id="icon-material-justify-center" viewBox="0 -960 960 960">
        <path d="M450-100v-760h60v760h-60Zm144.61-190v-380h100v380h-100Zm-329.22 0v-380h100v380h-100Z"/>
    </symbol>

    <symbol id="icon-material-justify-start" viewBox="0 -960 960 960">
        <path d="M100-100v-760h60v760h-60Zm430-190v-380h100v380H530Zm-240 0v-380h100v380H290Z"/>
    </symbol>

    <symbol id="icon-material-justify-end" viewBox="0 -960 960 960">
        <path d="M800-100v-760h60v760h-60ZM570-290v-380h100v380H570Zm-240 0v-380h100v380H330Z"/>
    </symbol>

    <symbol id="icon-bootstrap-spotify" viewBox="0 0 16 16">
        <path d="M8 0a8 8 0 1 0 0 16A8 8 0 0 0 8 0m3.669 11.538a.5.5 0 0 1-.686.165c-1.879-1.147-4.243-1.407-7.028-.77a.499.499 0 0 1-.222-.973c3.048-.696 5.662-.397 7.77.892a.5.5 0 0 1 .166.686m.979-2.178a.624.624 0 0 1-.858.205c-2.15-1.321-5.428-1.704-7.972-.932a.625.625 0 0 1-.362-1.194c2.905-.881 6.517-.454 8.986 1.063a.624.624 0 0 1 .206.858m.084-2.268C10.154 5.56 5.9 5.419 3.438 6.166a.748.748 0 1 1-.434-1.432c2.825-.857 7.523-.692 10.492 1.07a.747.747 0 1 1-.764 1.288"/>
    </symbol>

    <symbol id="icon-bootstrap-github" viewBox="0 0 16 16">
        <path d="M8 0C3.58 0 0 3.58 0 8c0 3.54 2.29 6.53 5.47 7.59.4.07.55-.17.55-.38 0-.19-.01-.82-.01-1.49-2.01.37-2.53-.49-2.69-.94-.09-.23-.48-.94-.82-1.13-.28-.15-.68-.52-.01-.53.63-.01 1.08.58 1.23.82.72 1.21 1.87.87 2.33.66.07-.52.28-.87.51-1.07-1.78-.2-3.64-.89-3.64-3.95 0-.87.31-1.59.82-2.15-.08-.2-.36-1.02.08-2.12 0 0 .67-.21 2.2.82.64-.18 1.32-.27 2-.27s1.36.09 2 .27c1.53-1.04 2.2-.82 2.2-.82.44 1.1.16 1.92.08 2.12.51.56.82 1.27.82 2.15 0 3.07-1.87 3.75-3.65 3.95.29.25.54.73.54 1.48 0 1.07-.01 1.93-.01 2.2 0 .21.15.46.55.38A8.01 8.01 0 0 0 16 8c0-4.42-3.58-8-8-8"/>
    </symbol>

    <symbol id="icon-bootstrap-gitlab" viewBox="0 0 16 16">
        <path d="m15.734 6.1-.022-.058L13.534.358a.57.57 0 0 0-.563-.356.6.6 0 0 0-.328.122.6.6 0 0 0-.193.294l-1.47 4.499H5.025l-1.47-4.5A.572.572 0 0 0 2.47.358L.289 6.04l-.022.057A4.044 4.044 0 0 0 1.61 10.77l.007.006.02.014 3.318 2.485 1.64 1.242 1 .755a.67.67 0 0 0 .814 0l1-.755 1.64-1.242 3.338-2.5.009-.007a4.05 4.05 0 0 0 1.34-4.668Z"/>
    </symbol>

    <symbol id="icon-codepen" viewBox="0 0 1024 1024">
        <path d="M938.666667 642.005333a36.096 36.096 0 0 1-0.341334 4.778667l-0.256 1.578667-0.682666 3.072c-0.128 0.64-0.341333 1.194667-0.554667 1.792l-0.938667 2.688-0.853333 1.792c-0.341333 0.853333-0.768 1.621333-1.194667 2.432l-1.066666 1.706666a32.810667 32.810667 0 0 1-4.608 5.76l-1.493334 1.450667a34.645333 34.645333 0 0 1-2.090666 1.706667l-1.621334 1.28c-0.213333 0.128-0.426667 0.341333-0.64 0.426666l-389.973333 260.053334a36.608 36.608 0 0 1-40.704 0l-389.973333-260.010667-0.597334-0.426667a34.432 34.432 0 0 1-3.754666-3.029333c-0.512-0.426667-0.981333-0.938667-1.450667-1.450667-0.64-0.64-1.28-1.28-1.834667-1.962666a30.165333 30.165333 0 0 1-2.816-3.84 44.288 44.288 0 0 1-2.304-4.096l-0.810666-1.792a37.034667 37.034667 0 0 1-0.938667-2.688c-0.213333-0.597333-0.426667-1.152-0.554667-1.792-0.298667-0.981333-0.426667-2.048-0.64-3.072l-0.298666-1.578667A36.138667 36.138667 0 0 1 85.333333 642.005333V381.994667c0-1.621333 0.128-3.2 0.341334-4.778667l0.298666-1.578667c0.170667-1.024 0.341333-2.090667 0.64-3.072a33.024 33.024 0 0 1 6.186667-12.586666 41.728 41.728 0 0 1 1.237333-1.621334l1.834667-1.962666 1.450667-1.450667a35.584 35.584 0 0 1 3.754666-2.986667c0.213333-0.128 0.384-0.341333 0.597334-0.426666l389.973333-260.053334a36.693333 36.693333 0 0 1 40.704 0l389.973333 260.010667c0.213333 0.128 0.426667 0.341333 0.64 0.426667l1.621334 1.28a35.797333 35.797333 0 0 1 2.133333 1.749333l1.450667 1.450667a31.36 31.36 0 0 1 4.608 5.802666l1.066666 1.706667 1.237334 2.389333 0.810666 1.792 0.938667 2.688c0.213333 0.597333 0.426667 1.152 0.554667 1.792 0.298667 0.981333 0.469333 2.048 0.682666 3.072l0.256 1.578667a35.584 35.584 0 0 1 0.341334 4.778667v260.010666zM158.677333 450.645333v122.709334L250.410667 512l-91.733334-61.354667z m316.672-89.088V190.506667l-287.317333 191.573333 128.341333 85.802667 158.976-106.325334z m360.618667 20.48L548.693333 190.506667v171.050666l158.976 106.325334 128.298667-85.845334zM188.032 641.962667l287.317333 191.530666v-171.050666l-158.976-106.325334-128.341333 85.845334z m360.661333 20.48v171.050666l287.274667-191.573333-128.298667-85.76-158.976 106.282667zM512 425.216L382.293333 512 512 598.741333 641.706667 512 512 425.258667z m353.322667 148.138667v-122.709334L773.589333 512l91.733334 61.354667z" />
    </symbol>


    <symbol id="icon-bootstrap-image" viewBox="0 0 16 16">
        <path d="M6.002 5.5a1.5 1.5 0 1 1-3 0 1.5 1.5 0 0 1 3 0"/>
        <path d="M1.5 2A1.5 1.5 0 0 0 0 3.5v9A1.5 1.5 0 0 0 1.5 14h13a1.5 1.5 0 0 0 1.5-1.5v-9A1.5 1.5 0 0 0 14.5 2zm13 1a.5.5 0 0 1 .5.5v6l-3.775-1.947a.5.5 0 0 0-.577.093l-3.71 3.71-2.66-1.772a.5.5 0 0 0-.63.062L1.002 12v.54L1 12.5v-9a.5.5 0 0 1 .5-.5z"/>
    </symbol>

    <symbol id="icon-bootstrap-youtube" viewBox="0 0 16 16">
        <path d="M8.051 1.999h.089c.822.003 4.987.033 6.11.335a2.01 2.01 0 0 1 1.415 1.42c.101.38.172.883.22 1.402l.01.104.022.26.008.104c.065.914.073 1.77.074 1.957v.075c-.001.194-.01 1.108-.082 2.06l-.008.105-.009.104c-.05.572-.124 1.14-.235 1.558a2.01 2.01 0 0 1-1.415 1.42c-1.16.312-5.569.334-6.18.335h-.142c-.309 0-1.587-.006-2.927-.052l-.17-.006-.087-.004-.171-.007-.171-.007c-1.11-.049-2.167-.128-2.654-.26a2.01 2.01 0 0 1-1.415-1.419c-.111-.417-.185-.986-.235-1.558L.09 9.82l-.008-.104A31 31 0 0 1 0 7.68v-.123c.002-.215.01-.958.064-1.778l.007-.103.003-.052.008-.104.022-.26.01-.104c.048-.519.119-1.023.22-1.402a2.01 2.01 0 0 1 1.415-1.42c.487-.13 1.544-.21 2.654-.26l.17-.007.172-.006.086-.003.171-.007A100 100 0 0 1 7.858 2zM6.4 5.209v4.818l4.157-2.408z"/>
    </symbol>
</svg>